# xmcd CD database file
#
# Track frame offsets:
#	150
#	84309
#	168320
#	239690
#
# Disc length: 4469 seconds
#
# Revision: 0
# Processed by: cddbd v1.5.2PL0 Copyright (c) Steve Scherf et al.
# Submitted via: CDex 1.70beta2
#
DISCID=28117304
DTITLE=BACK SCHOOL - 4 Rilassamenti - Musica eSuoni della Natura CD3
DYEAR=2005
DGENRE=New Age
TTITLE0=01-Natura La percezione dei contatti
TTITLE1=02-Natura La calma dopo la tensione
TTITLE2=03-Natura La percezione del respiro
TTITLE3=04-Natura La decontrazione muscolare
EXTD=YEAR: 2005
EXTT0=
EXTT1=
EXTT2=
EXTT3=
PLAYORDER=
